<svg xmlns:svg="http://www.w3.org/2000/svg" xmlns="http://www.w3.org/2000/svg" xmlns:xlink="http://www.w3.org/1999/xlink" version="1.1" width="196" height="196" id="svg2">
  <defs id="defs20">
    <radialGradient cx="196.33719" cy="186.43681" r="57.805977" fx="196.33719" fy="186.43681" id="radialGradient2953" xlink:href="#linearGradient2772" gradientUnits="userSpaceOnUse" gradientTransform="matrix(1.836943,-1.772508,0.572807,0.593626,-274.3391,424.107)"/>
    <radialGradient cx="119.7226" cy="269.64893" r="71.064232" fx="119.7226" fy="269.64893" id="radialGradient2951" xlink:href="#linearGradient2772" gradientUnits="userSpaceOnUse" gradientTransform="matrix(1.44987,-0.950029,0.291847,0.445398,-146.5661,258.3893)"/>
    <radialGradient cx="282.98776" cy="40.732708" r="110.10155" fx="282.98776" fy="40.732708" id="radialGradient2949" xlink:href="#linearGradient2819" gradientUnits="userSpaceOnUse" gradientTransform="matrix(0.681974,-0.406566,0.09517416,0.159645,98.53223,182.9053)"/>
    <radialGradient cx="224.14607" cy="109.50309" r="70.887459" fx="224.14607" fy="109.50309" id="radialGradient2947" xlink:href="#linearGradient2819" gradientUnits="userSpaceOnUse" gradientTransform="matrix(1.193173,-1.217808,0.320792,0.314302,-94.0463,401.4048)"/>
    <radialGradient cx="318.53406" cy="70.835747" r="66.834991" fx="318.53406" fy="70.835747" id="radialGradient2945" xlink:href="#linearGradient2819" gradientUnits="userSpaceOnUse" gradientTransform="matrix(-0.242293,-0.409266,1.629153,-0.964487,238.4446,289.0525)"/>
    <radialGradient cx="190.25296" cy="133.78008" r="42.904423" fx="190.25296" fy="133.78008" id="radialGradient2943" xlink:href="#linearGradient2772" gradientUnits="userSpaceOnUse" gradientTransform="matrix(0.801714,0.814186,-2.863742,2.819885,451.7457,-410.501)"/>
    <radialGradient cx="148.51024" cy="189.07526" r="28.557117" fx="148.51024" fy="189.07526" id="radialGradient2941" xlink:href="#linearGradient2772" gradientUnits="userSpaceOnUse" gradientTransform="matrix(1.460496,0.29257,-0.660658,3.297986,54.61396,-468.7349)"/>
    <radialGradient cx="90.20755" cy="264.08795" r="32.989033" fx="90.20755" fy="264.08795" id="radialGradient2939" xlink:href="#linearGradient2772" gradientUnits="userSpaceOnUse" gradientTransform="matrix(0.94132,0.337514,-0.98599,2.749907,261.7786,-483.4282)" spreadMethod="reflect"/>
    <mask id="mask2918">
      <path d="m 58.75,323 c 52.74374,-25.35972 85.01705,-51.53157 106.5,-76.75 -23.16208,-16.57016 -16.35679,-15.27745 4.5,-7.25 9.81312,3.77692 26.75,4 45.75,-28 14.58614,-24.56613 27.5,-35 27.5,-35 -16.42037,1.83647 -45.03297,-3.33251 4.25,-8.625 21.18972,-26.02629 47.60573,-48.5684 72.5,-72.125 -48.10097,19.60374 -30.94199,-1.276363 8.875,-7.625001 26.56651,-36.341988 75.36969,-55.870888 129,-71.75 -37.0127,1.310703 -77.56038,-0.163738 -93.5,17.75 l 0.25,-8.625 c -35.96429,8.944797 -120.91456,39.797852 -123.25159,46.533289 -1.79531,5.174178 -7.70271,16.731254 -10.69499,27.665553 -0.9295,-6.637109 -0.72035,-13.957413 0.70711,-22.008699 -25.08201,11.376989 -71.42469,46.024148 -73.45072,54.270448 -1.17198,4.77015 -4.21779,41.11625 -1.59099,57.27565 -8.65822,-13.41931 -9.85144,-30.2318 -11.38693,-46.88872 -8.81853,8.95956 -45.05008,23.53873 -38.28732,93.91132 -7.49114,-8.30429 -6.00329,-21.59691 -8.13173,-32.88047 C 74.27558,233.48435 53.0941,278.86739 54,324" id="path2901" style="fill:#ffffff;fill-opacity:1;fill-rule:evenodd;stroke:#ffffff;stroke-width:0.625;stroke-linecap:butt;stroke-linejoin:round;stroke-miterlimit:4;stroke-opacity:1;stroke-dasharray:none"/>
    </mask>
    <mask id="mask2761">
      <path d="M 281.5,87.25 C 163.1173,181.45514 64.982893,280.99684 11.6875,391.75 l 3.3125,0 c 0,0 6.5,-9.5 11.25,-13.5 4.75,-4 19.25,-13.75 19.25,-13.75 0,0 12.482756,-37.87794 38.292154,-74.64749 C 109.60155,253.08295 145.664,218.08117 153.08862,210.30299 160.51324,202.52482 176.125,185.75 176.125,185.75" id="path2759" style="fill:#ffffff;fill-opacity:1;fill-rule:evenodd;stroke:#ffffff;stroke-width:1.25;stroke-linecap:butt;stroke-linejoin:miter;stroke-miterlimit:4;stroke-opacity:1;stroke-dasharray:none"/>
    </mask>
    <linearGradient id="linearGradient2772">
      <stop id="stop2774" style="stop-color:#ffffff;stop-opacity:1" offset="0"/>
      <stop id="stop2887" style="stop-color:#ffffff;stop-opacity:1" offset="0.16932398"/>
      <stop id="stop2780" style="stop-color:#eeddcc;stop-opacity:1" offset="0.36134845"/>
      <stop id="stop2889" style="stop-color:#99ccff;stop-opacity:1" offset="0.6173811"/>
      <stop id="stop2776" style="stop-color:#99ccff;stop-opacity:1" offset="1"/>
    </linearGradient>
    <linearGradient id="linearGradient2819">
      <stop id="stop2821" style="stop-color:#ffffff;stop-opacity:1" offset="0"/>
      <stop id="stop2921" style="stop-color:#ffffff;stop-opacity:1" offset="0.4107143"/>
      <stop id="stop2823" style="stop-color:#99ccff;stop-opacity:1" offset="1"/>
    </linearGradient>
    <radialGradient cx="90.20755" cy="264.08795" r="32.989033" fx="90.20755" fy="264.08795" id="radialGradient2997" xlink:href="#linearGradient2772" gradientUnits="userSpaceOnUse" gradientTransform="matrix(0.94132,0.337514,-0.98599,2.749907,261.7786,-483.4282)" spreadMethod="reflect"/>
    <radialGradient cx="148.51024" cy="189.07526" r="28.557117" fx="148.51024" fy="189.07526" id="radialGradient2999" xlink:href="#linearGradient2772" gradientUnits="userSpaceOnUse" gradientTransform="matrix(1.460496,0.29257,-0.660658,3.297986,54.61396,-468.7349)"/>
    <radialGradient cx="190.25296" cy="133.78008" r="42.904423" fx="190.25296" fy="133.78008" id="radialGradient3001" xlink:href="#linearGradient2772" gradientUnits="userSpaceOnUse" gradientTransform="matrix(0.801714,0.814186,-2.863742,2.819885,451.7457,-410.501)"/>
    <radialGradient cx="318.53406" cy="70.835747" r="66.834991" fx="318.53406" fy="70.835747" id="radialGradient3003" xlink:href="#linearGradient2819" gradientUnits="userSpaceOnUse" gradientTransform="matrix(-0.242293,-0.409266,1.629153,-0.964487,238.4446,289.0525)"/>
    <radialGradient cx="224.14607" cy="109.50309" r="70.887459" fx="224.14607" fy="109.50309" id="radialGradient3005" xlink:href="#linearGradient2819" gradientUnits="userSpaceOnUse" gradientTransform="matrix(1.193173,-1.217808,0.320792,0.314302,-94.0463,401.4048)"/>
    <radialGradient cx="282.98776" cy="40.732708" r="110.10155" fx="282.98776" fy="40.732708" id="radialGradient3007" xlink:href="#linearGradient2819" gradientUnits="userSpaceOnUse" gradientTransform="matrix(0.681974,-0.406566,0.09517416,0.159645,98.53223,182.9053)"/>
    <radialGradient cx="119.7226" cy="269.64893" r="71.064232" fx="119.7226" fy="269.64893" id="radialGradient3009" xlink:href="#linearGradient2772" gradientUnits="userSpaceOnUse" gradientTransform="matrix(1.44987,-0.950029,0.291847,0.445398,-146.5661,258.3893)"/>
    <radialGradient cx="196.33719" cy="186.43681" r="57.805977" fx="196.33719" fy="186.43681" id="radialGradient3011" xlink:href="#linearGradient2772" gradientUnits="userSpaceOnUse" gradientTransform="matrix(1.836943,-1.772508,0.572807,0.593626,-274.3391,424.107)"/>
  </defs>
  <circle cx="98" cy="98" r="98" id="circle4" style="fill:#808080"/>
  <circle cx="98" cy="98" r="78" id="circle6" style="fill:#ffffff"/>
  <circle cx="98" cy="98" r="55" id="circle8" style="fill:#808080"/>
  <circle cx="98" cy="98" r="30" id="circle10" style="fill:#ffffff"/>
  <rect width="31" height="25" x="123" y="85" id="rect12" style="fill:#ffffff"/>
  <rect width="28.991379" height="141.42136" x="119.3748" y="-34.840187" transform="matrix(0.8660254,0.5,-0.5,0.8660254,0,0)" id="rect14" style="fill:#ffffff"/>
  <rect width="24.748737" height="169.70563" x="121.49612" y="-48.982323" transform="matrix(0.8660254,0.5,-0.5,0.8660254,0,0)" id="rect16" style="fill:#808080"/>
  <g transform="matrix(0.31300219,-0.06804666,0.06804666,0.31300219,20.211228,57.235636)" id="g2923">
    <path d="m 58.75,323 c 52.74374,-25.35972 85.01705,-51.53157 106.5,-76.75 -23.16208,-16.57016 -16.35679,-15.27745 4.5,-7.25 9.81312,3.77692 26.75,4 45.75,-28 14.58614,-24.56613 27.5,-35 27.5,-35 -16.42037,1.83647 -45.03297,-3.33251 4.25,-8.625 21.18972,-26.02629 47.60573,-48.5684 72.5,-72.125 -48.10097,19.60374 -30.94199,-1.276363 8.875,-7.625001 26.56651,-36.341988 75.36969,-55.870888 129,-71.75 -37.0127,1.310703 -77.56038,-0.163738 -93.5,17.75 l 0.25,-8.625 c -35.96429,8.944797 -120.91456,39.797852 -123.25159,46.533289 -1.79531,5.174178 -7.70271,16.731254 -10.69499,27.665553 -0.9295,-6.637109 -0.72035,-13.957413 0.70711,-22.008699 -25.08201,11.376989 -71.42469,46.024148 -73.45072,54.270448 -1.17198,4.77015 -4.21779,41.11625 -1.59099,57.27565 -8.65822,-13.41931 -9.85144,-30.2318 -11.38693,-46.88872 -8.81853,8.95956 -45.050082,23.53873 -38.28732,93.91132 -7.491138,-8.30429 -6.00329,-21.59691 -8.131727,-32.88047 C 74.27558,233.48435 53.094098,278.86739 54,324" id="path2906" style="fill:#ffffff;fill-opacity:1;fill-rule:evenodd;stroke:none"/>
    <g mask="url(#mask2918)" id="g2891">
      <path d="m 102.53048,182.72583 c -4.949744,50.20458 9.19239,66.46804 9.19239,66.46804 -25.119325,26.93727 -43.097828,58.63508 -62.932502,89.09545 -8.48529,-49.96888 9.428095,-101.82338 53.740112,-155.56349 z" id="path2782" style="fill:url(#radialGradient2997);fill-opacity:1;fill-rule:evenodd;stroke:none"/>
      <path d="m 158.39192,199.69639 c -6.92924,-26.39865 -7.72855,-52.79731 -11.31371,-79.19596 -37.98215,32.9364 -55.96579,68.89908 -37.47666,131.52186 15.69081,-17.44197 31.27058,-34.88393 48.79037,-52.3259 z" id="path2794" style="fill:url(#radialGradient2999);fill-opacity:1;fill-rule:evenodd;stroke:none"/>
      <path d="m 156.97771,201.81771 c -12.30572,-72.21412 -6.79606,-106.441117 79.90306,-136.471606 -6.79318,26.016224 -8.15081,43.551006 -4.24264,65.053826 -26.37476,22.65131 -51.14792,46.90421 -75.66042,71.41778 z" id="path2804" style="fill:url(#radialGradient3001);fill-opacity:1;fill-rule:evenodd;stroke:none"/>
      <path d="M 226.27417,133.93546 C 219.59762,39.280856 289.88791,30.979281 358.50314,20.798377 308.83086,65.039352 264.63301,102.8935 226.27417,133.93546 z" id="path2817" style="fill:url(#radialGradient3003);fill-opacity:1;fill-rule:evenodd;stroke:none"/>
      <path d="m 185.61553,174.24055 c 101.78785,4.91483 81.87624,-19.40932 141.77491,-82.024388 -32.95043,11.728018 -47.7014,10.716418 -62.2254,9.545938 -27.23449,24.15948 -54.17926,48.31897 -79.54951,72.47845 z" id="path2874" style="fill:url(#radialGradient3005);fill-opacity:1;fill-rule:evenodd;stroke:none"/>
      <path d="M 260.21529,108.47962 C 341.10537,89.98954 416.0238,76.223597 479.4184,9.4846682 438.49539,8.2297104 397.83852,1.1196686 356.02827,19.384164 l -95.81298,89.095456 z" id="path2829" style="fill:url(#radialGradient3007);fill-opacity:1;fill-rule:evenodd;stroke:none"/>
      <path d="m 135.7645,226.56645 c 15.74523,8.54824 38.23024,19.34308 48.79037,26.16295 -71.57484,72.85151 -93.917871,66.41403 -138.592929,90.50967 32.90121,-48.33008 53.689043,-80.87652 89.802559,-116.67262 z" id="path2839" style="fill:url(#radialGradient3009);fill-opacity:1;fill-rule:evenodd;stroke:none"/>
      <path d="m 135.0574,226.21289 c 58.99223,33.62186 76.60965,33.61067 116.11195,-52.65432 -33.10166,-8.6576 -26.69474,11.76069 -71.89015,10.32178 -14.08453,12.07871 -30.77968,30.50049 -44.2218,42.33254 z" id="path2862" style="fill:url(#radialGradient3011);fill-opacity:1;fill-rule:evenodd;stroke:none"/>
    </g>
    <path d="m 58.75,323 c 52.74374,-25.35972 85.01705,-51.53157 106.5,-76.75 -23.16208,-16.57016 -16.35679,-15.27745 4.5,-7.25 9.81312,3.77692 26.75,4 45.75,-28 14.58614,-24.56613 27.5,-35 27.5,-35 -16.42037,1.83647 -45.03297,-3.33251 4.25,-8.625 21.18972,-26.02629 47.60573,-48.5684 72.5,-72.125 -48.10097,19.60374 -30.94199,-1.276363 8.875,-7.625001 26.56651,-36.341988 75.36969,-55.870888 129,-71.75 -37.0127,1.310703 -77.56038,-0.163738 -93.5,17.75 l 0.25,-8.625 c -35.96429,8.944797 -120.91456,39.797852 -123.25159,46.533289 -1.79531,5.174178 -7.70271,16.731254 -10.69499,27.665553 -0.9295,-6.637109 -0.72035,-13.957413 0.70711,-22.008699 -25.08201,11.376989 -71.42469,46.024148 -73.45072,54.270448 -1.17198,4.77015 -4.21779,41.11625 -1.59099,57.27565 -8.65822,-13.41931 -9.85144,-30.2318 -11.38693,-46.88872 -8.81853,8.95956 -45.050082,23.53873 -38.28732,93.91132 -7.491138,-8.30429 -6.00329,-21.59691 -8.131727,-32.88047 C 74.27558,233.48435 53.094098,278.86739 54,324" id="path2768" style="fill:none;stroke:#000000;stroke-width:1.875;stroke-linecap:butt;stroke-linejoin:round;stroke-miterlimit:4;stroke-opacity:1;stroke-dasharray:none"/>
    <g id="g2764">
      <path d="M 281.5,87.25 C 163.1173,181.45514 64.982893,280.99684 11.6875,391.75 l 3.3125,0 c 0,0 6.5,-9.5 11.25,-13.5 4.75,-4 19.25,-13.75 19.25,-13.75 0,0 12.482756,-37.87794 38.292154,-74.64749 C 109.60155,253.08295 145.664,218.08117 153.08862,210.30299 160.51324,202.52482 176.125,185.75 176.125,185.75" id="path1873" style="fill:#c7a272;fill-opacity:1;fill-rule:evenodd;stroke:#000000;stroke-width:1.875;stroke-linecap:round;stroke-linejoin:round;stroke-miterlimit:4;stroke-opacity:1;stroke-dasharray:none"/>
      <path d="m 20.5,356 30,21.5 -64,37.5" mask="url(#mask2761)" id="path2757" style="fill:#000000;fill-opacity:1;fill-rule:evenodd;stroke:none"/>
    </g>
  </g>
</svg>